<svg fill="none" height="44" viewBox="0 0 195 44" width="195" xmlns="http://www.w3.org/2000/svg"><g fill="#101b42"><path clip-rule="evenodd" d="m21.7997 5.86658-5.1998 2.9335-5.1998 2.93312-5.20027 2.9335v5.8665 2.9336 2.933 2.9335 2.9335l5.20027-2.9335 5.1998-2.9335v-2.933-2.9336l-5.1998 2.9336v-5.8666l5.1998-2.9335 5.1998-2.9335v2.9335 2.9335 2.933 2.9336 2.933 2.9335l-5.1998 2.9335-5.1998 2.9331-5.20027 2.9335-5.19983 2.9331 5.19983 2.9335 5.20027-2.9335 5.1998-2.9331 5.1998-2.9335 5.2003-2.9331v-5.867-5.8666-5.8665-2.2501-3.61652-5.86658l-5.2003-2.9335z" fill-rule="evenodd"/><path d="m52.5199 12.5344h4.4801v17.6413c0 2.866-.9066 5.0527-2.7199 6.5599-1.868 1.5266-4.1873 2.326-6.5589 2.2607-1.7489.0387-3.4817-.3551-5.0569-1.1493-1.4246-.7359-2.596-1.9144-3.353-3.3734l3.8957-2.3448c.9003 1.7366 2.4524 2.605 4.6565 2.6052 1.4452 0 2.5826-.3962 3.4123-1.1886.8294-.7932 1.2441-1.9201 1.2441-3.3808v-2.0063c-1.3509 1.8777-3.2467 2.8165-5.6874 2.8165-2.379.056-4.6683-.9483-6.2948-2.7615-1.6743-1.798-2.5877-4.2219-2.5356-6.7288-.0441-2.5018.8758-4.9174 2.5533-6.7047 1.619-1.8153 3.9016-2.8255 6.2771-2.7782 2.4408 0 4.3366.9393 5.6874 2.8179zm-8.5486 12.6024c2.0324 1.9036 5.1121 1.9036 7.1446 0 .9385-.9577 1.448-2.2831 1.404-3.6523.0392-1.3575-.4703-2.6695-1.404-3.6153-2.0325-1.9036-5.1122-1.9036-7.1446 0-.9339.9456-1.4435 2.2578-1.404 3.6153-.0442 1.3693.4653 2.6948 1.404 3.6523z"/><path clip-rule="evenodd" d="m64.5849 15.3855c.3776-1.0692 1.1293-1.9696 2.1193-2.5386 1.0023-.5686 2.1404-.8609 3.2958-.8464v5.0703c-1.3158-.1831-2.6537.1193-3.7586.8494-1.1044.7302-1.6565 1.9429-1.6565 3.6382v8.4416h-4.5849v-17.6333h4.5849z" fill-rule="evenodd"/><path d="m85.4282 12.5168h4.5718v17.9664h-4.5718v-2.1126c-1.3754 1.7529-3.3081 2.6293-5.7981 2.6292-2.3279.0179-4.5491-.9854-6.0887-2.7503-1.6898-1.8259-2.6015-4.2502-2.5383-6.7495-.063-2.4993.8487-4.9235 2.5383-6.7495 1.5397-1.7647 3.7609-2.768 6.0887-2.7503 2.49 0 4.4227.8764 5.7981 2.6292zm-8.466 12.6402c.9264.9497 2.2028 1.4655 3.5216 1.4229 1.3236.0402 2.6046-.4748 3.5393-1.4229.946-.9718 1.4543-2.2945 1.4051-3.657.0491-1.3623-.4591-2.6849-1.4051-3.6566-.9346-.9481-2.2157-1.4633-3.5393-1.4233-1.3188-.0424-2.5953.4735-3.5216 1.4233-.9361.9768-1.4372 2.2976-1.3874 3.6566-.0499 1.3592.4512 2.6801 1.3874 3.657z"/><path d="m103.334 12.0004c2.34-.0234 4.574.9933 6.125 2.7869 1.689 1.8503 2.601 4.3067 2.538 6.8393.063 2.5327-.849 4.9892-2.538 6.8394-1.551 1.7938-3.785 2.8105-6.125 2.7869-2.49 0-4.4105-.886-5.7623-2.6579v9.405h-4.5717v-25.4761h4.5718v2.1407c1.3514-1.7758 3.2722-2.6639 5.7622-2.6642zm-4.3748 13.332c.9263.9623 2.2028 1.4849 3.5218 1.4418 1.323.0407 2.604-.4812 3.539-1.4418.946-.9848 1.454-2.3252 1.405-3.7058.049-1.3804-.459-2.7206-1.405-3.7052-.935-.9608-2.216-1.4828-3.539-1.4423-1.319-.043-2.5956.4798-3.5218 1.4423-.9362.9898-1.4373 2.3281-1.3874 3.7052-.05 1.3773.4511 2.7158 1.3874 3.7058z"/><g clip-rule="evenodd" fill-rule="evenodd"><path d="m125.124 11.8858c1.852-.0566 3.642.6862 4.929 2.0457 1.298 1.3634 1.947 3.2475 1.947 5.6522v11.4163h-4.687v-10.8292c0-1.24-.328-2.1889-.985-2.8465-.709-.6781-1.657-1.034-2.627-.9864-1.089-.0511-2.149.3677-2.92 1.1538-.73.7689-1.095 1.9224-1.094 3.4606v10.0477h-4.687v-26h4.687v9.4829c1.143-1.7312 2.955-2.5969 5.437-2.5971z"/><path d="m143.727 30.9975c-2.59.0587-5.092-.9218-6.928-2.7148-1.835-1.793-2.846-4.2432-2.797-6.7839.025-3.4075 1.895-6.5447 4.91-8.2364 3.016-1.6918 6.721-1.6826 9.727.0241 1.4.8008 2.511 2.0107 3.176 3.4606l-1.994 1.1245c-.494-1.0899-1.328-1.9979-2.382-2.5932-1.124-.6484-2.408-.981-3.712-.9616-1.944-.0401-3.817.7157-5.17 2.086-1.384 1.3439-2.145 3.1861-2.105 5.096-.04 1.91.721 3.7524 2.105 5.0964 1.577 1.5995 3.833 2.3718 6.082 2.0822 2.25-.2896 4.226-1.6069 5.33-3.5514l2.031 1.1606c-.757 1.4427-1.924 2.6387-3.361 3.4426-1.491.849-3.188 1.2872-4.912 1.2683z"/><path d="m173.243 12.0053c1.836-.0736 3.616.6167 4.896 1.898 1.241 1.2651 1.861 2.9754 1.861 5.1312v10.9655h-2.395v-10.9681c0-1.523-.403-2.7006-1.208-3.5328-.83-.8421-1.991-1.2966-3.19-1.2479-1.368-.0494-2.69.4832-3.622 1.4589-.925.9729-1.388 2.4903-1.387 4.5522v9.7377h-2.396v-10.9681c0-1.5467-.378-2.7301-1.135-3.5504-.789-.8339-1.918-1.2845-3.082-1.2303-1.382-.0238-2.713.5107-3.676 1.4764-1.009.9843-1.514 2.4959-1.514 4.5347v9.7377h-2.395v-17.5736h2.395v2.563c1.137-1.9026 3.253-3.0476 5.515-2.9841 2.6 0 4.429 1.0651 5.489 3.1951 1.299-2.13 3.247-3.1951 5.844-3.1951z"/><path d="m184.086 17.1381c-.011.7936.421 1.5313 1.13 1.9301.849.5175 1.772.9094 2.741 1.1626 1.072.298 2.144.5957 3.217.8931 1.043.281 1.984.8397 2.716 1.6126.762.8404 1.159 1.934 1.105 3.0511.033 1.4775-.673 2.8796-1.895 3.7658-1.262.9647-2.891 1.4458-4.888 1.4431-1.61.0458-3.2-.3584-4.579-1.1643-1.193-.699-2.117-1.7556-2.633-3.0094l2.097-1.1945c.34.9342 1.007 1.7239 1.885 2.2323.977.5628 2.097.847 3.233.8199 1.068.0374 2.126-.2052 3.062-.7021.808-.4436 1.286-1.2915 1.235-2.1888.014-.7975-.411-1.5422-1.116-1.9554-.84-.525-1.76-.9204-2.726-1.1721-1.072-.298-2.145-.5959-3.217-.8936-1.043-.2803-1.987-.8307-2.73-1.5918-.769-.8167-1.172-1.8951-1.12-2.9986-.016-1.4373.656-2.8008 1.821-3.6931 1.293-1.0161 2.924-1.5422 4.588-1.4801 1.404-.0281 2.789.3182 4.003 1.0008 1.112.6284 1.999 1.5708 2.541 2.7008l-2.07 1.1578c-.72-1.6926-2.212-2.5404-4.477-2.5434-.975-.0267-1.937.227-2.763.7291-.747.4429-1.19 1.2407-1.16 2.0881z"/></g></g></svg>