<svg height="80" viewBox="0 0 211 80" width="211" xmlns="http://www.w3.org/2000/svg" xmlns:xlink="http://www.w3.org/1999/xlink"><filter id="a" height="277.3%" width="388.9%" x="-144.4%" y="-88.6%"><feOffset dx="0" dy="0" in="SourceAlpha" result="shadowOffsetOuter1"/><feGaussianBlur in="shadowOffsetOuter1" result="shadowBlurOuter1" stdDeviation="10"/><feColorMatrix in="shadowBlurOuter1" result="shadowMatrixOuter1" type="matrix" values="0 0 0 0 0   0 0 0 0 0   0 0 0 0 0  0 0 0 0.1 0"/><feMerge><feMergeNode in="shadowMatrixOuter1"/><feMergeNode in="SourceGraphic"/></feMerge></filter><g fill="none" fill-rule="evenodd" transform="translate(16 18)"><g filter="url(#a)"><path d="m.89816787 41.3488549.10183213-29.6229093 20.8116584-11.72327414-.0214479 5.88870965-15.58049225 8.80657369.00916446 17.5877123 10.38361249-5.9360022v-5.7883988l-5.2475821 2.9389456v-5.8849728l10.4352974-5.8892933v17.5851595z"/><path d="m21.7997428 5.86658291-5.1998285 2.93350084-5.1998286 2.93308205-5.20025714 2.9335009v5.8665829 2.9335008 2.9330821 2.9335008 2.9335009l5.20025714-2.9335009 5.1998286-2.9335008v-2.9330821-2.9335008l-5.1998286 2.9335008v-5.8665829l5.1998286-2.9335008 5.1998285-2.9335009v2.9335009 2.9335008 2.9330821 2.9335008 2.9330821 2.9335008l-5.1998285 2.9335009-5.1998286 2.933082-5.20025714 2.9335009-5.19982856 2.9330821 5.19982856 2.9335008 5.20025714-2.9335008 5.1998286-2.9330821 5.1998285-2.9335009 5.2002572-2.933082v-5.8670017-5.8665829-5.8665829-2.2500643-3.61651865-5.86658291l-5.2002572-2.93350084z" fill="#101b42"/></g><g fill="#101b42"><path d="m52.5199001 12.5343825h4.4800999v17.641274c0 2.8660614-.906624 5.0527202-2.7198719 6.5599763-1.8680561 1.5265842-4.1873092 2.3259653-6.5588798 2.2606607-1.7488998.0387139-3.4817564-.355115-5.056944-1.1492992-1.4246484-.7359136-2.5959787-1.9143799-3.3529875-3.3734143l3.8957197-2.3448281c.9002664 1.7366576 2.452411 2.6050624 4.6564339 2.6052142 1.4452198 0 2.5826711-.396201 3.412354-1.1886031.8293838-.7931725 1.2440757-1.9201101 1.2440757-3.3808128v-2.0062854c-1.3508523 1.8777186-3.246654 2.8165764-5.6874049 2.8165735-2.3790261.0559809-4.6683054-.9483258-6.2948172-2.761536-1.6743135-1.7979584-2.5877114-4.2219032-2.5355615-6.728788-.0441342-2.5018104.8757573-4.9173794 2.5532843-6.7047407 1.6190333-1.8152397 3.9015827-2.8254746 6.2770985-2.7781848 2.4407509 0 4.3365526.939319 5.6874049 2.817957zm-8.5486057 12.6024285c2.032442 1.9036126 5.1121474 1.9036126 7.1445894 0 .9384741-.9576602 1.4479942-2.2830852 1.4040163-3.6522967.0392261-1.3574669-.4703293-2.6695552-1.4040163-3.6152956-2.0324406-1.9036166-5.1121489-1.9036166-7.1445894 0-.9338624.9456175-1.4434518 2.2577894-1.4040205 3.6152956-.044183 1.36925.4653707 2.6947587 1.4040205 3.6522967z" fill-rule="nonzero"/><path d="m64.5848535 15.3855469c.377672-1.069197 1.1293538-1.9696067 2.1193377-2.5386703 1.0023001-.5686191 2.1404503-.8608947 3.2958088-.8463598v5.0702795c-1.3158066-.1830788-2.653708.1192908-3.7585658.8494466-1.1043844.7301754-1.656578 1.9428822-1.6565807 3.6381202v8.4416369h-4.5848535v-17.6332874h4.5848535z"/><path d="m85.4282452 12.5168378h4.5717548v17.9663481h-4.5717548v-2.1126279c-1.3754306 1.7529566-3.3081324 2.6293585-5.7981055 2.6292057-2.3279216.0179292-4.5491287-.9853916-6.0887306-2.7502839-1.6897776-1.8259097-2.6014765-4.2501342-2.5383351-6.7494804-.0629809-2.4993198.8486956-4.9234862 2.5383351-6.7494846 1.5397218-1.7647202 3.7608434-2.7680044 6.0887182-2.750284 2.4899759 0 4.4226777.8764019 5.7981055 2.6292058zm-8.4659956 12.6401947c.9263094.9496738 2.202783 1.4654405 3.5215474 1.4229021 1.3235708.0401346 2.6046111-.4748822 3.5392915-1.4229021.9460545-.9718231 1.4543036-2.2945823 1.4051567-3.6570331.0490631-1.3623046-.4591826-2.6848937-1.4051567-3.6565874-.9346282-.948149-2.2156621-1.4633262-3.5392915-1.423352-1.3188238-.0423797-2.5952915.4735478-3.5215474 1.423352-.9361805.9768282-1.4373007 2.2975567-1.3874084 3.6565874-.0499766 1.3591771.4511471 2.6800759 1.3874084 3.6570331z" fill-rule="nonzero"/><path d="m103.334371 12.0003941c2.339179-.0233677 4.573308.9933004 6.124218 2.7869025 1.68964 1.8503115 2.601316 4.3067537 2.538337 6.8393503.063139 2.5326232-.84856 4.9891241-2.538337 6.839346-1.550787 1.7937732-3.784997 2.8104767-6.124218 2.7868983-2.489978 0-4.4108557-.8859502-5.7626338-2.6578506v9.4049594h-4.5717372v-25.4761205h4.5717537v2.140731c1.351473-1.7758403 3.2723453-2.6639124 5.7626173-2.6642164zm-4.3752039 13.3319731c.926308.9623188 2.2027819 1.4849528 3.5215459 1.4418472 1.323573.0406702 2.604616-.4812039 3.539298-1.4418472.946055-.9847624 1.454304-2.3251335 1.405157-3.7057245.049064-1.380443-.459183-2.7206416-1.405157-3.7052729-.93463-.9607738-2.215667-1.4828102-3.539298-1.4423032-1.318824-.0429427-2.5952903.479854-3.5215459 1.4423032-.9361821.9898337-1.4373041 2.3281469-1.3874134 3.7052729-.0499767 1.3772758.451149 2.7157635 1.3874134 3.7057287z" fill-rule="nonzero"/><path d="m125.123771 11.8858479c1.85244-.0566467 3.642364.6861246 4.929526 2.0456231 1.297647 1.3634442 1.946548 3.2475289 1.946703 5.6522539v11.4162751l-4.686646-.0000043v-10.8291551c0-1.2400836-.328392-2.1889278-.985176-2.8465327-.708697-.6780704-1.656854-1.0340115-2.627595-.9864073-1.088897-.0511041-2.148554.3677364-2.919148 1.1538235-.730012.7689084-1.09494 1.9224232-1.094785 3.4605445v10.0477314h-4.68665v-26h4.686641v9.4828589c1.143462-1.7311856 2.955838-2.5968559 5.43713-2.597011z"/><path d="m143.727099 30.997511c-2.589817.0586656-5.0919-.9218581-6.927666-2.7148339-1.835766-1.7929757-2.846243-4.2431366-2.797766-6.7839051.024917-3.4074294 1.895413-6.5446933 4.910705-8.2364108 3.015292-1.6917174 6.72024-1.6825341 9.726779.0241095 1.400297.8008128 2.510619 2.0107119 3.175848 3.4606682l-1.994072 1.1244533c-.494262-1.0898974-1.328272-1.9978667-2.382004-2.5932375-1.124002-.6483139-2.408091-.9809556-3.711842-.9615484-1.944149-.0400794-3.817524.7157346-5.170384 2.0859934-1.383959 1.3438592-2.144864 3.1861227-2.104778 5.0959807-.040175 1.9100063.720734 3.7524422 2.104778 5.0964304 1.577299 1.599482 3.833519 2.3718165 6.082803 2.0822256s4.225928-1.6068982 5.329061-3.5514805l2.031439 1.1606461c-.756558 1.4427359-1.924159 2.6387419-3.360806 3.4425676-1.491061.8489855-3.188175 1.2871936-4.912095 1.2683414z"/><path d="m173.243447 12.0053411c1.83514-.0736214 3.615645.6166463 4.895741 1.8979854 1.240399 1.2650303 1.86067 2.9754234 1.860812 5.1311795v10.965494h-2.395116v-10.9681263c0-1.5229489-.402492-2.7005439-1.207475-3.5327848-.829963-.842086-1.991868-1.296616-3.190034-1.2479214-1.368108-.0493179-2.690499.4832639-3.622433 1.4589046-.925223.9728965-1.387683 2.49029-1.387382 4.5521807v9.7377472h-2.395116v-10.9681263c0-1.5466347-.378446-2.7300784-1.135338-3.5503311-.789236-.8339458-1.917923-1.2845596-3.081816-1.2303751-1.382693-.0237988-2.713734.51073-3.676542 1.4764509-1.009088.9843033-1.513632 2.4958481-1.513632 4.5346344v9.7377472h-2.395116v-17.5735604h2.395116v2.5629554c1.137348-1.9025908 3.253358-3.0475582 5.514811-2.9840499 2.59982 0 4.429523 1.0650124 5.489109 3.1950372 1.298557-2.1300275 3.246694-3.1950412 5.844411-3.1950412z"/><path d="m184.086237 17.1380568c-.010922.7936336.421064 1.5313496 1.130238 1.9301414.848418.5175083 1.772022.9093704 2.740188 1.1625929 1.071982.2980032 2.144275.5957051 3.21688.893106 1.043526.2810078 1.984622.8397394 2.716259 1.6126526.762501.8403271 1.158733 1.93393 1.105442 3.0510275.032336 1.4775576-.673413 2.8795838-1.895623 3.765809-1.261491.9647296-2.890576 1.4457651-4.887257 1.4431065-1.610318.0458352-3.200166-.3584007-4.579205-1.1643117-1.192925-.6989415-2.117471-1.7555912-2.633159-3.0094005l2.097134-1.1944372c.33999.9341725 1.006916 1.7238606 1.885266 2.2322921.976199.5627389 2.09692.8469516 3.232865.819849 1.067356.0374418 2.12531-.2051378 3.061819-.7020488.807666-.4435923 1.286082-1.2915048 1.234986-2.1888077.013971-.7975584-.411083-1.5422234-1.116172-1.9554554-.840353-.52493-1.759883-.9203378-2.725692-1.1720773-1.072451-.2980032-2.144745-.5958564-3.21688-.8935598-1.042953-.2803697-1.987106-.8307475-2.730777-1.5918602-.768686-.8166942-1.171291-1.8950434-1.119525-2.9985673-.016007-1.4372619.656234-2.8007922 1.820739-3.693073 1.293077-1.0161318 2.924081-1.5422291 4.588594-1.4800985 1.403804-.0281034 2.788532.3181308 4.002545 1.0007873 1.112019.6283294 1.998838 1.5707453 2.541461 2.700791l-2.070444 1.1578277c-.719629-1.6926233-2.211787-2.5404212-4.476476-2.5433935-.975437-.0267227-1.937165.226995-2.763616.7290815-.747262.4428289-1.19032 1.2406259-1.15959 2.0880264z"/></g></g></svg>